<?xml version="1.0" encoding="utf-8"?>
<!-- Generator: Adobe Illustrator 22.1.0, SVG Export Plug-In . SVG Version: 6.00 Build 0)  -->
<!DOCTYPE svg PUBLIC "-//W3C//DTD SVG 1.1//EN" "http://www.w3.org/Graphics/SVG/1.1/DTD/svg11.dtd">
<svg version="1.1" id="Layer_1" xmlns="http://www.w3.org/2000/svg" xmlns:xlink="http://www.w3.org/1999/xlink" x="0px" y="0px"
	 viewBox="0 0 800 800" style="enable-background:new 0 0 800 800;" xml:space="preserve">
<style type="text/css">
	.st0{fill:#00C4A8;}
</style>
<path class="st0" d="M238.1968689,872c8.3901062-95.4750977,16.8860779-167.6298218,25.9169312-225.9463501
	c12.9484558-83.6137695,26.99646-138.8181763,43.4084167-193.6642456
	c2.0672607-6.9085693,4.9898071-13.5068359,10.3650818-18.3138123l22.6925049-20.2928467
	c6.2691956-5.6065063,8.0483093-15.0247803,3.5488281-22.1307678c-5.1557617-8.1423645-15.5741272-10.1210022-23.2098083-5.5166931
	l18.6968994-78.1646729c3.5758057-14.6748047-5.505188-29.6072998-20.1799927-33.1826172h-0.0007019
	c-14.6741333-3.5763245-29.6062622,5.5045166-33.182251,20.179657c3.5759888-14.6751404-5.5057068-29.6072998-20.180542-33.1829529
	c-14.6754913-3.5756226-29.6069489,5.5055542-33.1825867,20.179657c3.5756378-14.6741028-5.5053711-29.6062622-20.1805267-33.1819
	c-14.6751556-3.5766907-29.6078339,5.504837-33.1829529,20.179306c3.575119-14.674469-5.5057068-29.6069794-20.1801758-33.1826172
	c-14.6748047-3.5766754-29.6074829,5.505188-33.1836395,20.1800079c0,0-46.706337,93.4770966-89.5859604,440.2516479
	C30.0743923,748.7947388,23.6604958,807.2103882,17.5105591,872H238.1968689z"/>
<path class="st0" d="M555.9500122,872c-8.3900757-95.4750977-16.8860474-167.6298218-25.9169312-225.9463501
	c-12.9484253-83.6137695-26.99646-138.8181763-43.4084167-193.6642456
	c-2.0672607-6.9085693-4.9898071-13.5068359-10.3651123-18.3138123l-22.6924744-20.2928467
	c-6.2691956-5.6065063-8.0483093-15.0247803-3.5488281-22.1307678c5.1557312-8.1423645,15.5741272-10.1210022,23.2097778-5.5166931
	l-18.6968689-78.1646729c-3.5758057-14.6748047,5.505188-29.6072998,20.1799927-33.1826172h0.0007019
	c14.6741028-3.5763245,29.6062622,5.5045166,33.182251,20.179657c-3.5759888-14.6751404,5.5057373-29.6072998,20.180542-33.1829529
	c14.6754761-3.5756226,29.6069336,5.5055542,33.1825562,20.179657c-3.5756226-14.6741028,5.5053711-29.6062622,20.180542-33.1819
	c14.6751709-3.5766907,29.6078491,5.504837,33.1829834,20.179306c-3.5751343-14.674469,5.5056763-29.6069794,20.1801758-33.1826172
	c14.6748047-3.5766754,29.6074829,5.505188,33.1835938,20.1800079c0,0,46.7063599,93.4770966,89.5859985,440.2516479
	C764.0725098,748.7947388,770.4863892,807.2103882,776.6362915,872H555.9500122z"/>
</svg>
