<svg xmlns="http://www.w3.org/2000/svg" viewBox="0 0 229.2 55.4"><path d="M21.5 37.9v7.7c0 5.5-2.1 9.7-10.2 9.7-8 0-10.3-4.2-10.3-9.7V10.5C1 5 3.3.8 11.3.8S21.5 5 21.5 10.5v7h-8v-7c0-1.3-.7-2.4-2.1-2.4-1.4 0-2.1 1.1-2.1 2.4v35.1c0 1.6.7 2.4 2.1 2.4 1.4 0 2.1-.8 2.1-2.4v-7.7h8zM24.7 45.7V10.5C24.7 5 27 .8 35 .8s10.3 4.3 10.3 9.8v35.1c0 5.5-2.3 9.7-10.3 9.7s-10.3-4.2-10.3-9.7zm12.4-.1V10.5c0-1.4-.7-2.4-2.1-2.4-1.4 0-2.1 1-2.1 2.4v35.1c0 1.6.7 2.4 2.1 2.4 1.4 0 2.1-.8 2.1-2.4zM49.3 1.5h11.1c7.7 0 9.6 3.3 9.6 9.5v34.2c0 6.4-1.8 9.5-9.3 9.5H49.3V1.5zm8.2 45.4h2.7c1.1 0 1.6-.5 1.6-1.7V11.1c0-1.3-.6-1.8-1.7-1.8h-2.5v37.6zM82.4 46.9H91v7.7H74.2V1.5H91v7.7h-8.6V24H90v7.6h-7.5v15.3zM103.3 1.5h11.1c7.7 0 9.6 3.3 9.6 9.5v34.2c0 6.4-1.8 9.5-9.3 9.5h-11.3V1.5zm8.2 45.4h2.7c1.1 0 1.6-.5 1.6-1.7V11.1c0-1.3-.6-1.8-1.7-1.8h-2.5v37.6zM139.8 1.5h10.6l6.2 53.1h-8.3l-.8-10.3h-4.9l-.8 10.3h-8.3l6.3-53.1zm3.6 35.2h3.4l-.5-7.8c-.5-6.4-.9-12.9-1.1-18.6h-.2c-.3 5.8-.7 12.4-1.1 18.6l-.5 7.8zM159.2 54.6v-5.3l8.7-40.1h-9V1.5h17.9v5.3l-8.7 40.1h9.2v7.7h-18.1zM188.4 1.5v44.3c0 1.6.7 2.3 2.1 2.3s2.1-.7 2.1-2.3V1.5h8.2v44.3c0 5.5-2.3 9.6-10.3 9.6s-10.3-4-10.3-9.6V1.5h8.2zM205.1 1.5h11.6c7.3 0 8.9 3.6 8.9 9v13.2c0 4.6-.8 7.2-4.2 8.4l6.8 22.5h-8.7l-5.8-22.2h-.5v22.2H205V1.5zm8.2 23.5h2.7c1.1 0 1.6-.5 1.6-1.7V11.1c0-1.3-.6-1.8-1.7-1.8h-2.5V25z"/><path d="M136.3 6.5l-5 5-5-5 5-5 5 5z"/><path d="M136.3 6.5l-5 5v-10l5 5z"/></svg>
