<?xml version="1.0" encoding="UTF-8" standalone="no"?>
<svg

        xmlns:svg="http://www.w3.org/2000/svg"
        xmlns="http://www.w3.org/2000/svg"
        id="Laag_1"
        viewBox="0 0 120.01 115.53"
        version="1.1"
        width="120.01"
        height="115.53"
        >
    <metadata
            id="metadata133">
    </metadata>
    <defs
            id="defs4">
        <style
                id="style2">.cls-1{fill:#f06c21;}.cls-2{fill:#c6c2bd;}.cls-3{fill:#f1822e;}.cls-4{fill:#e05801;}.cls-5{fill:#635e55;}.cls-6{fill:#868178;}.cls-7{fill:#a7a7a7;}</style>
    </defs>
    <title
            id="title6">logo</title>
    <polygon
            class="cls-1"
            points="60.04,23.11 60.04,46.21 40.04,34.66 "
            id="polygon8"
            style="fill:#f06c21" />
    <polygon
            class="cls-1"
            points="40.04,11.55 40.04,34.66 60.04,23.11 "
            id="polygon10"
            style="fill:#f06c21" />
    <polygon
            class="cls-2"
            points="60.04,0 60.04,23.11 40.04,11.55 "
            id="polygon12"
            style="fill:#c6c2bd" />
    <polygon
            class="cls-3"
            points="60.04,0 60.04,23.11 80.05,11.55 "
            id="polygon14"
            style="fill:#f1822e" />
    <polygon
            class="cls-2"
            points="60.05,46.23 60.05,69.33 40.05,57.78 "
            id="polygon16"
            style="fill:#c6c2bd" />
    <polygon
            class="cls-4"
            points="60.05,46.23 60.05,69.33 80.06,57.78 "
            id="polygon18"
            style="fill:#e05801" />
    <polygon
            class="cls-1"
            points="40.05,34.67 40.05,57.78 60.05,46.23 "
            id="polygon20"
            style="fill:#f06c21" />
    <polygon
            class="cls-1"
            points="60.03,69.3 60.03,92.4 40.02,80.85 "
            id="polygon22"
            style="fill:#f06c21" />
    <polygon
            class="cls-1"
            points="40.02,57.75 40.02,80.85 60.03,69.3 "
            id="polygon24"
            style="fill:#f06c21" />
    <polygon
            class="cls-5"
            points="60.06,23.08 60.06,46.18 40.05,34.63 "
            id="polygon26"
            style="fill:#635e55" />
    <polygon
            class="cls-5"
            points="40.05,34.63 40.05,57.73 60.06,46.18 "
            id="polygon28"
            style="fill:#635e55" />
    <polygon
            class="cls-2"
            points="40.05,11.53 40.05,34.63 20.04,23.08 "
            id="polygon30"
            style="fill:#c6c2bd" />
    <polygon
            class="cls-2"
            points="40.05,11.53 40.05,34.63 60.06,23.08 "
            id="polygon32"
            style="fill:#c6c2bd" />
    <polygon
            class="cls-5"
            points="60.03,69.31 60.03,92.41 40.02,80.86 "
            id="polygon34"
            style="fill:#635e55" />
    <polygon
            class="cls-5"
            points="40.02,80.86 40.02,103.96 60.03,92.41 "
            id="polygon36"
            style="fill:#635e55" />
    <polygon
            class="cls-2"
            points="40.02,57.76 40.02,80.86 60.03,69.31 "
            id="polygon38"
            style="fill:#c6c2bd" />
    <polygon
            class="cls-5"
            points="40.04,34.66 40.04,57.76 20.02,46.21 "
            id="polygon40"
            style="fill:#635e55" />
    <polygon
            class="cls-6"
            points="20.02,46.21 20.02,69.31 0.02,57.76 "
            id="polygon42"
            style="fill:#868178" />
    <polygon
            class="cls-5"
            points="20.02,46.21 20.02,69.31 40.04,57.76 "
            id="polygon44"
            style="fill:#635e55" />
    <polygon
            class="cls-6"
            points="0.02,34.66 0.02,57.76 20.02,46.21 "
            id="polygon46"
            style="fill:#868178" />
    <polygon
            class="cls-2"
            points="20.02,23.11 20.02,46.21 0.02,34.66 "
            id="polygon48"
            style="fill:#c6c2bd" />
    <polygon
            class="cls-2"
            points="20.02,23.11 20.02,46.21 40.04,34.66 "
            id="polygon50"
            style="fill:#c6c2bd" />
    <polygon
            class="cls-4"
            points="120.01,34.58 120.01,57.68 100,46.13 "
            id="polygon52"
            style="fill:#e05801" />
    <polygon
            class="cls-1"
            points="100,46.13 100,69.23 79.99,57.68 "
            id="polygon54"
            style="fill:#f06c21" />
    <polygon
            class="cls-4"
            points="100,46.13 100,69.23 120.01,57.68 "
            id="polygon56"
            style="fill:#e05801" />
    <polygon
            class="cls-1"
            points="79.99,34.58 79.99,57.68 100,46.13 "
            id="polygon58"
            style="fill:#f06c21" />
    <polygon
            class="cls-3"
            points="100,23.02 100,46.13 79.99,34.58 "
            id="polygon60"
            style="fill:#f1822e" />
    <polygon
            class="cls-3"
            points="100,23.02 100,46.13 120.01,34.58 "
            id="polygon62"
            style="fill:#f1822e" />
    <polygon
            class="cls-4"
            points="119.99,57.7 119.99,80.8 99.98,69.25 "
            id="polygon64"
            style="fill:#e05801" />
    <polygon
            class="cls-1"
            points="99.98,69.25 99.98,92.35 79.97,80.8 "
            id="polygon66"
            style="fill:#f06c21" />
    <polygon
            class="cls-4"
            points="99.98,69.25 99.98,92.35 119.99,80.8 "
            id="polygon68"
            style="fill:#e05801" />
    <polygon
            class="cls-1"
            points="79.97,57.7 79.97,80.8 99.98,69.25 "
            id="polygon70"
            style="fill:#f06c21" />
    <polygon
            class="cls-1"
            points="80.07,34.63 80.07,57.73 60.06,46.18 "
            id="polygon72"
            style="fill:#f06c21" />
    <polygon
            class="cls-1"
            points="60.06,23.08 60.06,46.18 80.07,34.63 "
            id="polygon74"
            style="fill:#f06c21" />
    <polygon
            class="cls-3"
            points="80.07,11.53 80.07,34.63 60.06,23.08 "
            id="polygon76"
            style="fill:#f1822e" />
    <polygon
            class="cls-3"
            points="80.07,11.53 80.07,34.63 100.08,23.08 "
            id="polygon78"
            style="fill:#f1822e" />
    <polygon
            class="cls-4"
            points="120,80.77 120,103.87 99.98,92.32 "
            id="polygon80"
            style="fill:#e05801" />
    <polygon
            class="cls-1"
            points="99.98,92.32 99.98,115.42 79.98,103.87 "
            id="polygon82"
            style="fill:#f06c21" />
    <polygon
            class="cls-4"
            points="99.98,92.32 99.98,115.42 120,103.87 "
            id="polygon84"
            style="fill:#e05801" />
    <polygon
            class="cls-1"
            points="79.98,80.77 79.98,103.87 99.98,92.32 "
            id="polygon86"
            style="fill:#f06c21" />
    <polygon
            class="cls-1"
            points="80.05,80.83 80.05,103.93 60.05,92.38 "
            id="polygon88"
            style="fill:#f06c21" />
    <polygon
            class="cls-1"
            points="60.05,69.28 60.05,92.38 80.05,80.83 "
            id="polygon90"
            style="fill:#f06c21" />
    <polygon
            class="cls-3"
            points="80.05,57.72 80.05,80.83 60.05,69.28 "
            id="polygon92"
            style="fill:#f1822e" />
    <polygon
            class="cls-5"
            points="40.02,57.79 40.02,80.89 20.01,69.34 "
            id="polygon94"
            style="fill:#635e55" />
    <polygon
            class="cls-6"
            points="20.01,69.34 20.01,92.45 0,80.89 "
            id="polygon96"
            style="fill:#868178" />
    <polygon
            class="cls-5"
            points="20.01,69.34 20.01,92.45 40.02,80.89 "
            id="polygon98"
            style="fill:#635e55" />
    <polygon
            class="cls-6"
            points="0,57.79 0,80.89 20.01,69.34 "
            id="polygon100"
            style="fill:#868178" />
    <polygon
            class="cls-5"
            points="40.02,80.87 40.02,103.98 20.01,92.43 "
            id="polygon102"
            style="fill:#635e55" />
    <polygon
            class="cls-6"
            points="20.01,92.43 20.01,115.53 0,103.98 "
            id="polygon104"
            style="fill:#868178" />
    <polygon
            class="cls-5"
            points="20.01,92.43 20.01,115.53 40.02,103.98 "
            id="polygon106"
            style="fill:#635e55" />
    <polygon
            class="cls-6"
            points="0,80.87 0,103.98 20.01,92.43 "
            id="polygon108"
            style="fill:#868178" />
</svg>
